<svg xmlns="http://www.w3.org/2000/svg" viewBox="0 0 64 64" fill="none" role="img" aria-labelledby="title desc">
  <title id="title">Topo de bolo personalizado</title>
  <desc id="desc">Bolo com topper de bandeirinhas</desc>
  <g stroke="#C94A64" stroke-width="3" stroke-linecap="round" stroke-linejoin="round">
    <path d="M13 42h38v9a3 3 0 0 1-3 3H16a3 3 0 0 1-3-3v-9Z" fill="#FDF1F2" stroke="#C94A64" stroke-width="3" stroke-linecap="round" stroke-linejoin="round" />
    <path d="M16 42c0-4 4-7 8-7 3 0 5 1 8 1s5-1 8-1c4 0 8 3 8 7" stroke="#C94A64" stroke-width="3" stroke-linecap="round" stroke-linejoin="round" />
    <path d="M20 49h24" stroke="#C94A64" stroke-width="3" stroke-linecap="round" stroke-linejoin="round" />
    <path d="M32 35V16" stroke="#C94A64" stroke-width="3" stroke-linecap="round" stroke-linejoin="round" />
    <path d="M21 19v9l7-4.5 7 4.5 8-5v-9l-8 5-7-4.5-7 4.5Z" fill="#FDF1F2" stroke="#C94A64" stroke-width="3" stroke-linecap="round" stroke-linejoin="round" />
    <path d="m32 10 1.3 2.7 3 .4-2.2 2.1.5 3-2.6-1.4-2.7 1.4.6-3-2.2-2.1 3-.4L32 10Z" fill="#FDF1F2" stroke="#C94A64" stroke-width="3" stroke-linecap="round" stroke-linejoin="round" />
  </g>
</svg>